<svg viewBox="55 48 390 104" xmlns="http://www.w3.org/2000/svg" aria-label="piconic"><g fill="#00b769"><path d="M136.32,53.25c-3.1,0-5.62,2.49-5.62,5.56,0,3.07,2.52,5.56,5.62,5.56,3.1,0,5.62-2.49,5.62-5.56s-2.52-5.56-5.62-5.56Z"/><rect x="132.05" y="75.12" width="8.53" height="49.65"/><path d="M371.34,52.88c-3.1,0-5.62,2.49-5.62,5.56s2.52,5.56,5.62,5.56c3.1,0,5.62-2.49,5.62-5.56s-2.52-5.56-5.62-5.56Z"/><rect x="367.08" y="75.12" width="8.53" height="49.65"/><path d="M248.89,74.52c-14.02,0-25.14,11.41-25.14,25.42s11.12,25.42,25.14,25.42,25.14-11.4,25.14-25.42-11.12-25.42-25.14-25.42ZM248.89,116.28c-9.01,0-16.62-7.33-16.62-16.33s7.61-16.33,16.62-16.33,16.62,7.33,16.62,16.33-7.61,16.33-16.62,16.33Z"/><path d="M199.11,111.56c-3.02,2.92-7.14,4.72-11.61,4.72-9.01,0-16.62-7.33-16.62-16.33s7.61-16.33,16.62-16.33c4.47,0,8.59,1.81,11.61,4.72l6.28-6.28c-4.54-4.65-10.85-7.53-17.89-7.53-14.02,0-25.14,11.41-25.14,25.42s11.12,25.42,25.14,25.42c7.05,0,13.36-2.88,17.89-7.53l-6.28-6.28Z"/><path d="M434.13,111.56c-3.02,2.92-7.14,4.72-11.61,4.72-9.01,0-16.62-7.33-16.62-16.33s7.61-16.33,16.62-16.33c4.47,0,8.59,1.81,11.61,4.72l6.28-6.28c-4.54-4.65-10.85-7.53-17.89-7.53-14.02,0-25.14,11.41-25.14,25.42s11.12,25.42,25.14,25.42c7.05,0,13.36-2.88,17.89-7.53l-6.28-6.28Z"/><path d="M319.49,74.52c-14.02,0-25.14,11.41-25.14,25.42h0v24.83h8.53v-24.83c0-9.01,7.61-16.33,16.62-16.33s16.62,7.33,16.62,16.33v24.83h8.53v-24.83h0c0-14.02-11.12-25.42-25.14-25.42Z"/><path d="M85,74.52c-14.02,0-25.14,11.41-25.14,25.42v46.78h8.53v-27.7c4.41,3.93,10.2,6.34,16.62,6.34,14.02,0,25.14-11.4,25.14-25.42s-11.12-25.42-25.14-25.42ZM85,116.28c-9.01,0-16.62-7.33-16.62-16.33s7.61-16.33,16.62-16.33,16.62,7.33,16.62,16.33-7.61,16.33-16.62,16.33Z"/></g></svg>
